<svg width="20" height="29" viewBox="0 0 20 29" fill="none" xmlns="http://www.w3.org/2000/svg">
<path d="M11.3381 13.7028L11.3335 13.6621L11.3224 13.6226C10.9409 12.2671 10.4316 10.9508 9.80138 9.69146L9.4226 8.93453L9.03966 8.10552C8.38842 6.69566 8.34149 5.08092 8.90976 3.63562C9.1576 3.00527 9.50272 2.41768 9.93257 1.89424L10.4659 1.24478C10.8396 3.77233 11.9238 6.15139 13.6037 8.09854L13.827 8.35736L13.8349 8.3665L13.8433 8.37526L17.0719 11.7711C17.2612 11.9701 17.4281 12.1894 17.5695 12.4249C18.8195 14.5065 19.398 16.9227 19.2264 19.3447L19.0957 21.1895C19.0418 21.9507 18.7715 22.6806 18.3168 23.2934C17.1232 24.9021 15.5426 26.1831 13.7217 27.0177L13.223 27.2463C11.1769 28.1841 8.83537 28.24 6.74683 27.401C5.11855 26.7469 3.65104 25.7483 2.44497 24.4737L1.99151 23.9945L1.62833 24.3381L1.99151 23.9945C1.47162 23.445 1.09885 22.7732 0.907762 22.0413L0.864087 21.8741C0.630187 20.9782 0.579979 20.0442 0.716486 19.1285C0.847531 18.2493 1.15972 17.407 1.63327 16.6547L3.28917 14.0245L3.3064 13.9971L3.31996 13.9677C3.98832 12.5208 4.37672 10.9628 4.46706 9.37577L4.66208 9.50286C4.89463 9.65439 5.07636 9.87221 5.18378 10.1281C5.52928 10.9513 5.63179 11.8563 5.4792 12.7359L5.20232 14.332C5.00288 15.4817 5.34022 16.6594 6.11809 17.5292C7.15209 18.6853 8.9385 18.7541 10.0583 17.6809L9.71235 17.3199L10.0583 17.6808L10.1241 17.6178C11.0636 16.7174 11.5302 15.4309 11.3864 14.1376L11.3381 13.7028Z" fill="black" stroke="black"/>
</svg>
