<svg width="100" height="95" viewBox="0 0 100 95" fill="none" xmlns="http://www.w3.org/2000/svg">
<path fill-rule="evenodd" clip-rule="evenodd" d="M18.3989 38.1868C18.4423 25.2291 29.3496 14.7613 42.7608 14.8062C52.992 14.8405 61.719 20.981 65.2677 29.6398C65.8353 29.5795 66.4117 29.5495 66.9949 29.5514C75.377 29.5795 82.15 36.1675 82.1228 44.2661C82.1202 45.0322 82.0566 45.7856 81.9363 46.5217C87.4654 49.5557 91.1921 55.3052 91.17 61.8931C91.1374 71.6114 82.957 79.4623 72.8986 79.4286L27.3674 79.2759C15.6326 79.2366 6.1504 70.0134 6.18842 58.6754C6.216 50.4514 11.2432 43.3795 18.4743 40.1262C18.4222 39.4861 18.3967 38.8393 18.3989 38.1868Z" fill="#C1C6D1"/>
<path fill-rule="evenodd" clip-rule="evenodd" d="M40.6875 50.2188C40.6875 40.968 48.8583 33.4688 58.9375 33.4688C66.6267 33.4688 73.2008 37.8316 75.8897 44.0047C76.3161 43.9603 76.7492 43.9375 77.1875 43.9375C83.487 43.9375 88.5938 48.6245 88.5938 54.4062C88.5938 54.9532 88.5479 55.4912 88.4592 56.017C92.6222 58.1698 95.4375 62.2655 95.4375 66.9688C95.4375 73.9068 89.3094 79.5312 81.75 79.5312H47.5312C38.712 79.5312 31.5625 72.9694 31.5625 64.875C31.5625 59.0037 35.3228 53.943 40.7491 51.6031C40.7083 51.1463 40.6875 50.6846 40.6875 50.2188Z" fill="white"/>
</svg>
