<svg width="232" height="230" viewBox="0 0 232 230" fill="none" xmlns="http://www.w3.org/2000/svg">
<path d="M103.247 6.60144C109.994 -1.12377 122.006 -1.12376 128.753 6.60145L136.372 15.3242C140.701 20.2808 147.51 22.2801 153.832 20.4509L164.957 17.2318C174.81 14.3809 184.915 20.875 186.415 31.0218L188.108 42.4789C189.07 48.9892 193.718 54.3523 200.025 56.2312L211.124 59.5379C220.954 62.4664 225.944 73.3928 221.72 82.7397L216.95 93.2935C214.24 99.2905 215.25 106.315 219.54 111.305L227.09 120.088C233.776 127.866 232.067 139.756 223.46 145.335L213.742 151.635C208.219 155.214 205.271 161.67 206.182 168.187L207.785 179.657C209.205 189.816 201.339 198.894 191.082 198.934L179.501 198.98C172.92 199.006 166.95 202.842 164.192 208.818L159.34 219.334C155.042 228.647 143.517 232.031 134.866 226.52L125.098 220.297C119.548 216.761 112.452 216.761 106.902 220.297L97.1339 226.52C88.4833 232.031 76.9581 228.647 72.6604 219.334L67.8077 208.818C65.0503 202.842 59.0804 199.006 52.4995 198.98L40.918 198.934C30.661 198.894 22.795 189.816 24.2147 179.657L25.8177 168.187C26.7286 161.67 23.7806 155.214 18.2584 151.635L8.54013 145.335C-0.0667133 139.756 -1.77617 127.866 4.91016 120.088L12.4599 111.305C16.7499 106.315 17.7598 99.2905 15.0496 93.2935L10.28 82.7396C6.05589 73.3928 11.0458 62.4664 20.8759 59.5379L31.9753 56.2312C38.2824 54.3523 42.9296 48.9892 43.8918 42.4789L45.5852 31.0218C47.085 20.875 57.19 14.3809 67.0429 17.2318L78.168 20.4509C84.4897 22.2801 91.2987 20.2808 95.6279 15.3242L103.247 6.60144Z" fill="#FFEA00"/>
<path d="M103.623 6.93036C110.171 -0.566741 121.829 -0.566735 128.377 6.93037L135.996 15.6531C140.453 20.7561 147.463 22.8144 153.971 20.9312L165.096 17.7121C174.658 14.9454 184.465 21.2477 185.92 31.0949L187.614 42.552C188.604 49.2545 193.389 54.776 199.882 56.7104L210.981 60.0171C220.521 62.8592 225.364 73.4629 221.264 82.5337L216.495 93.0876C213.705 99.2617 214.744 106.493 219.161 111.631L226.711 120.414C233.2 127.962 231.541 139.501 223.188 144.915L213.47 151.215C207.784 154.901 204.749 161.546 205.687 168.256L207.29 179.727C208.668 189.585 201.034 198.395 191.08 198.434L179.499 198.48C172.723 198.506 166.577 202.456 163.738 208.608L158.886 219.124C154.715 228.162 143.53 231.447 135.135 226.098L125.367 219.875C119.653 216.234 112.347 216.234 106.633 219.875L96.8652 226.098C88.4701 231.447 77.2851 228.162 73.1144 219.124L68.2617 208.608C65.4229 202.456 59.2767 198.506 52.5014 198.48L40.92 198.434C30.9659 198.395 23.3321 189.585 24.7099 179.727L26.3129 168.256C27.2507 161.546 24.2157 154.901 18.5304 151.215L8.81211 144.915C0.459406 139.501 -1.19957 127.962 5.28932 120.414L12.839 111.631C17.2557 106.493 18.2955 99.2617 15.5052 93.0876L10.7356 82.5337C6.63625 73.4629 11.4788 62.8592 21.0186 60.0171L32.1181 56.7104C38.6114 54.776 43.3958 49.2545 44.3864 42.552L46.0799 31.0949C47.5353 21.2477 57.3419 14.9454 66.9039 17.7121L78.0291 20.9312C84.5374 22.8144 91.5474 20.7561 96.0045 15.6531L103.623 6.93036Z" stroke="black" stroke-opacity="0.2"/>
</svg>
