<svg width="513" height="278" viewBox="0 0 513 278" fill="none" xmlns="http://www.w3.org/2000/svg">
<path d="M10.72 31.32C6.592 31.32 3.2 29.56 1.696 26.36C1.408 25.784 1.568 25.112 2.464 24.664C3.232 24.28 3.872 24.632 4.128 25.016C5.632 27.416 7.936 28.728 10.752 28.728C14.72 28.728 17.376 26.84 17.376 24.056V23.768C17.376 16.28 1.664 22.712 1.664 12.728V12.312C1.664 8.088 5.344 5.24 10.848 5.24C14.912 5.24 18.048 7 19.456 9.944C19.84 10.616 19.52 11.416 18.688 11.736C17.792 12.056 17.216 11.704 16.896 11.224C15.648 9.048 13.568 7.832 10.784 7.832C7.04 7.832 4.544 9.592 4.544 12.216V12.44C4.544 19.928 20.256 13.464 20.256 23.512V23.928C20.256 28.344 16.416 31.32 10.72 31.32ZM27.065 31.224C25.145 31.224 23.833 29.848 23.833 27.8V6.776C23.833 5.88 24.313 5.336 25.209 5.336C26.105 5.336 26.585 5.88 26.585 6.776V27.448C26.585 28.248 26.969 28.824 27.705 29.048C28.089 29.208 28.537 29.432 28.537 30.104C28.537 30.808 27.929 31.224 27.065 31.224ZM38.5918 12.664C43.2318 12.664 46.3358 15.704 46.3358 20.28V21.72C46.3358 22.488 45.9198 22.936 45.1518 22.936H33.5677V23.672C33.5677 26.808 35.6158 28.888 38.6878 28.888C40.7998 28.888 42.4958 28.024 43.5198 26.584C43.8718 26.2 44.2878 26.104 44.7678 26.264C45.7917 26.52 46.1118 27.352 45.7278 27.96C44.6078 30.104 41.9518 31.32 38.6878 31.32C33.9518 31.32 30.8158 28.28 30.8158 23.672V20.28C30.8158 15.704 33.9198 12.664 38.5918 12.664ZM43.5838 20.696V20.312C43.5838 17.176 41.5998 15.096 38.5918 15.096C35.5838 15.096 33.5677 17.176 33.5677 20.312V20.696H43.5838ZM56.9668 12.664C61.6068 12.664 64.7108 15.704 64.7108 20.28V21.72C64.7108 22.488 64.2948 22.936 63.5268 22.936H51.9427V23.672C51.9427 26.808 53.9908 28.888 57.0628 28.888C59.1748 28.888 60.8708 28.024 61.8948 26.584C62.2468 26.2 62.6628 26.104 63.1428 26.264C64.1667 26.52 64.4868 27.352 64.1028 27.96C62.9828 30.104 60.3268 31.32 57.0628 31.32C52.3268 31.32 49.1908 28.28 49.1908 23.672V20.28C49.1908 15.704 52.2948 12.664 56.9668 12.664ZM61.9588 20.696V20.312C61.9588 17.176 59.9748 15.096 56.9668 15.096C53.9588 15.096 51.9427 17.176 51.9427 20.312V20.696H61.9588ZM76.8778 12.664C81.2938 12.664 84.2058 15.64 84.2058 20.152V23.8C84.2058 28.344 81.2938 31.32 76.8778 31.32C74.4458 31.32 72.4618 30.392 71.1498 28.824V36.344C71.1498 37.24 70.6698 37.784 69.7738 37.784C68.8778 37.784 68.3978 37.24 68.3978 36.344V14.168C68.3978 13.272 68.8778 12.76 69.6778 12.76C70.5098 12.76 70.9578 13.272 70.9898 14.168V15.352C72.2698 13.656 74.3177 12.664 76.8778 12.664ZM81.4538 23.544V20.44C81.4538 17.208 79.4058 15.096 76.3018 15.096C73.1978 15.096 71.1498 17.208 71.1498 20.44V23.544C71.1498 26.744 73.1978 28.888 76.3018 28.888C79.4058 28.888 81.4538 26.744 81.4538 23.544Z" fill="black"/>
<rect y="218" width="30" height="60" rx="15" fill="black"/>
<rect x="38" y="178" width="30" height="100" rx="15" fill="black"/>
<rect x="76" y="130" width="30" height="148" rx="15" fill="#D6FF64"/>
<rect x="114" y="204" width="30" height="74" rx="15" fill="black"/>
<rect x="152" y="97" width="30" height="181" rx="15" fill="black"/>
<rect x="190" y="178" width="30" height="100" rx="15" fill="black"/>
<rect x="228" y="218" width="30" height="60" rx="15" fill="#D6FF64"/>
<rect x="266" y="198" width="30" height="80" rx="15" fill="black"/>
<rect x="304" y="162" width="30" height="116" rx="15" fill="black"/>
<rect x="342" y="117" width="30" height="161" rx="15" fill="black"/>
<rect x="380" y="178" width="30" height="100" rx="15" fill="black"/>
<rect x="418" y="198" width="30" height="80" rx="15" fill="black"/>
<rect x="456" y="162" width="30" height="116" rx="15" fill="black"/>
</svg>
